# xmcd
#
# Track frame offsets:
#	182
#	8970
#	25662
#	37200
#	49240
#	62915
#	76870
#	90667
#	107725
#	119715
#	134300
#	147062
#	157497
#	170567
#	179245
#
# Disc length: 2605 seconds
#
# Revision: 1
# Processed by: cddbd v1.5.2PL0 Copyright (c) Steve Scherf et al.
# Submitted via: audiograbber 1.83.01
#
DISCID=dc0a2b0f
DTITLE=Peter Horan - Old Time Country
DYEAR=1900
DGENRE=Country/Instrumental
TTITLE0=Bush Scootin'
TTITLE1=My shoes keep walking back to you
TTITLE2=Joey's song
TTITLE3=Carolina moon
TTITLE4=Have you ever been lonely
TTITLE5=Love is a beautiful song
TTITLE6=Lili marlene/ The lamplighters serenade
TTITLE7=Welcome to my world
TTITLE8=Music,music,music
TTITLE9=South of the border
TTITLE10=Don't fence me in
TTITLE11=The ranger's waltz
TTITLE12=High noon
TTITLE13=The happy wanderer
TTITLE14=Whispering hope
EXTD=Australian Artist Contact phone # 02 6331 1528
EXTT0=
EXTT1=
EXTT2=
EXTT3=
EXTT4=
EXTT5=
EXTT6=
EXTT7=
EXTT8=
EXTT9=
EXTT10=
EXTT11=
EXTT12=
EXTT13=
EXTT14=
PLAYORDER=
